HIERARCHY
ROOT hip
{
  OFFSET 0 0 0
  CHANNELS 6 Xposition Yposition Zposition Zrotation Yrotation Xrotation
  JOINT abdomen
  {
    OFFSET 0 20.6881 -0.73152
    CHANNELS 3 Zrotation Xrotation Yrotation
    JOINT chest
    {
      OFFSET 0 11.7043 -0.48768
      CHANNELS 3 Zrotation Xrotation Yrotation
      JOINT neck
      {
        OFFSET 0 22.1894 -2.19456
        CHANNELS 3 Zrotation Xrotation Yrotation
        JOINT head
        {
          OFFSET -0.24384 7.07133 1.2192
          CHANNELS 3 Zrotation Xrotation Yrotation
          JOINT leftEye
          {
            OFFSET 4.14528 8.04674 8.04672
            CHANNELS 3 Zrotation Xrotation Yrotation
            End Site
            {
              OFFSET 1 0 0
            }
          }
          JOINT rightEye
          {
            OFFSET -3.6576 8.04674 8.04672
            CHANNELS 3 Zrotation Xrotation Yrotation
            End Site
            {
              OFFSET 1 0 0
            }
          }
        }
      }
      JOINT rCollar
      {
        OFFSET -2.68224 19.2634 -4.8768
        CHANNELS 3 Zrotation Xrotation Yrotation
        JOINT rShldr
        {
          OFFSET -8.77824 -1.95073 1.46304
          CHANNELS 3 Zrotation Xrotation Yrotation
          JOINT rForeArm
          {
            OFFSET -28.1742 -1.7115 0.48768
            CHANNELS 3 Zrotation Xrotation Yrotation
            JOINT rHand
            {
              OFFSET -22.5879 0.773209 7.07136
              CHANNELS 3 Zrotation Xrotation Yrotation
              JOINT rThumb1
              {
                OFFSET -1.2192 -0.487915 3.41376
                CHANNELS 3 Zrotation Xrotation Yrotation
                JOINT rThumb2
                {
                  OFFSET -3.37035 -0.52449 3.41376
                  CHANNELS 3 Zrotation Xrotation Yrotation
                  End Site
                  {
                    OFFSET -1.78271 -1.18214 1.43049
                  }
                }
              }
              JOINT rIndex1
              {
                OFFSET -7.75947 0.938293 5.60832
                CHANNELS 3 Zrotation Xrotation Yrotation
                JOINT rIndex2
                {
                  OFFSET -2.54057 -0.884171 1.56538
                  CHANNELS 3 Zrotation Xrotation Yrotation
                  End Site
                  {
                    OFFSET -1.62519 -0.234802 1.16502
                  }
                }
              }
              JOINT rMid1
              {
                OFFSET -8.24714 1.18213 3.41376
                CHANNELS 3 Zrotation Xrotation Yrotation
                JOINT rMid2
                {
                  OFFSET -3.10165 -0.590103 1.0647
                  CHANNELS 3 Zrotation Xrotation Yrotation
                  End Site
                  {
                    OFFSET -2.48547 -0.328903 0.83742
                  }
                }
              }
              JOINT rRing1
              {
                OFFSET -8.82822 0.546677 1.51678
                CHANNELS 3 Zrotation Xrotation Yrotation
                JOINT rRing2
                {
                  OFFSET -2.60934 -0.819778 -0.0198488
                  CHANNELS 3 Zrotation Xrotation Yrotation
                  End Site
                  {
                    OFFSET -2.33842 -0.294052 0.168128
                  }
                }
              }
              JOINT rPinky1
              {
                OFFSET -8.27202 -0.0477905 -0.4584
                CHANNELS 3 Zrotation Xrotation Yrotation
                JOINT rPinky2
                {
                  OFFSET -1.82734 -0.647385 -0.700984
                  CHANNELS 3 Zrotation Xrotation Yrotation
                  End Site
                  {
                    OFFSET -1.69225 -0.51767 -0.607171
                  }
                }
              }
            }
          }
        }
      }
      JOINT lCollar
      {
        OFFSET 2.68224 19.2634 -4.8768
        CHANNELS 3 Zrotation Xrotation Yrotation
        JOINT lShldr
        {
          OFFSET 8.77824 -1.95073 1.46304
          CHANNELS 3 Zrotation Xrotation Yrotation
          JOINT lForeArm
          {
            OFFSET 28.1742 -1.7115 0.48768
            CHANNELS 3 Zrotation Xrotation Yrotation
            JOINT lHand
            {
              OFFSET 22.5879 0.773209 7.07136
              CHANNELS 3 Zrotation Xrotation Yrotation
              JOINT lThumb1
              {
                OFFSET 1.2192 -0.487915 3.41376
                CHANNELS 3 Zrotation Xrotation Yrotation
                JOINT lThumb2
                {
                  OFFSET 3.37035 -0.52449 3.41376
                  CHANNELS 3 Zrotation Xrotation Yrotation
                  End Site
                  {
                    OFFSET 1.78271 -1.18214 1.43049
                  }
                }
              }
              JOINT lIndex1
              {
                OFFSET 7.75947 0.938293 5.60832
                CHANNELS 3 Zrotation Xrotation Yrotation
                JOINT lIndex2
                {
                  OFFSET 2.54057 -0.884171 1.56538
                  CHANNELS 3 Zrotation Xrotation Yrotation
                  End Site
                  {
                    OFFSET 1.62519 -0.234802 1.16502
                  }
                }
              }
              JOINT lMid1
              {
                OFFSET 8.24714 1.18213 3.41376
                CHANNELS 3 Zrotation Xrotation Yrotation
                JOINT lMid2
                {
                  OFFSET 3.10165 -0.590103 1.0647
                  CHANNELS 3 Zrotation Xrotation Yrotation
                  End Site
                  {
                    OFFSET 2.48547 -0.328903 0.83742
                  }
                }
              }
              JOINT lRing1
              {
                OFFSET 8.82822 0.546677 1.51678
                CHANNELS 3 Zrotation Xrotation Yrotation
                JOINT lRing2
                {
                  OFFSET 2.60934 -0.819778 -0.0198488
                  CHANNELS 3 Zrotation Xrotation Yrotation
                  End Site
                  {
                    OFFSET 2.33842 -0.294052 0.168128
                  }
                }
              }
              JOINT lPinky1
              {
                OFFSET 8.27202 -0.0477905 -0.4584
                CHANNELS 3 Zrotation Xrotation Yrotation
                JOINT lPinky2
                {
                  OFFSET 1.82734 -0.647385 -0.700984
                  CHANNELS 3 Zrotation Xrotation Yrotation
                  End Site
                  {
                    OFFSET 1.69225 -0.51767 -0.607171
                  }
                }
              }
            }
          }
        }
      }
    }
  }
  JOINT rButtock
  {
    OFFSET -8.77824 4.35084 1.2192
    CHANNELS 3 Zrotation Xrotation Yrotation
    JOINT rThigh
    {
      OFFSET 0 -1.70687 -2.19456
      CHANNELS 3 Zrotation Xrotation Yrotation
      JOINT rShin
      {
        OFFSET 0 -36.8199 0.73152
        CHANNELS 3 Zrotation Xrotation Yrotation
        JOINT rFoot
        {
          OFFSET 0.73152 -45.1104 -5.12064
          CHANNELS 3 Zrotation Xrotation Yrotation
          End Site
          {
            OFFSET -1.1221 -3.69964 12.103
          }
        }
      }
    }
  }
  JOINT lButtock
  {
    OFFSET 8.77824 4.35084 1.2192
    CHANNELS 3 Zrotation Xrotation Yrotation
    JOINT lThigh
    {
      OFFSET 0 -1.70687 -2.19456
      CHANNELS 3 Zrotation Xrotation Yrotation
      JOINT lShin
      {
        OFFSET 0 -36.8199 0.73152
        CHANNELS 3 Zrotation Xrotation Yrotation
        JOINT lFoot
        {
          OFFSET -0.73152 -45.1104 -5.12064
          CHANNELS 3 Zrotation Xrotation Yrotation
          End Site
          {
            OFFSET 1.1221 -3.69964 12.103
          }
        }
      }
    }
  }
}
MOTION
Frames:	4
Frame Time:	0.03333
0.0 0.0 0.0 0.0 0.0 0.0 0.0 0.0 0.0 0.0 0.0 0.0 0.0 0.0 0.0 0.0 0.0 0.0 0.0 0.0 0.0 0.0 0.0 0.0 0.0 0.0 0.0 0.0 0.0 0.0 0.0 0.0 0.0 0.0 0.0 0.0 0.0 0.0 0.0 0.0 0.0 0.0 0.0 0.0 0.0 0.0 0.0 0.0 0.0 0.0 0.0 0.0 0.0 0.0 0.0 0.0 0.0 0.0 0.0 0.0 0.0 0.0 0.0 0.0 0.0 0.0 0.0 0.0 0.0 0.0 0.0 0.0 0.0 0.0 0.0 0.0 0.0 0.0 0.0 0.0 0.0 0.0 0.0 0.0 0.0 0.0 0.0 0.0 0.0 0.0 0.0 0.0 0.0 0.0 0.0 0.0 0.0 0.0 0.0 0.0 0.0 0.0 0.0 0.0 0.0 0.0 0.0 0.0 0.0 0.0 0.0 0.0 0.0 0.0 0.0 0.0 0.0 0.0 0.0 0.0 0.0 0.0 0.0 0.0 0.0 0.0 0.0 0.0 0.0 0.0 0.0 0.0
0.0584 61.7167 0.623 -4.222125 2.269474 5.596905 -1.662995 14.730295 3.500163 2.89917 -9.26525 1.168162 -5.238617 14.334419 -4.856347 8.056299 -24.546893 -7.371804 0.03302 -0.002299 -0.010947 -0.011518 -0.013581 -0.000345 -0.008506 -0.016118 0.000223 51.175942 38.601159 10.313818 -28.305329 -33.02938 71.893104 -0.015016 2.090315 0.514479 -0.006721 -0.018103 -0.012319 -0.009088 -0.00845 -0.028739 -0.005764 -0.016089 -0.02066 7.747426 5.515095 0.39837 -0.000411 -0.000823 0.027992 2.904064 0.986685 0.112326 -0.002631 -0.016988 -0.010517 10.260927 0.72964 0.005113 -0.016538 -0.011456 -0.035701 2.258755 -0.751363 -0.187838 0.005063 -0.001475 0.034594 -55.71077 39.113144 -24.875677 28.525854 -35.378746 -75.927069 0.703023 -19.887261 2.838896 -0.002955 0.005724 0.005355 -0.025638 0.027057 -0.009189 0.00524 0.002619 -0.019648 -7.744774 5.449079 -0.430694 -0.006362 -0.01736 -0.012721 -2.905193 0.994598 -0.101893 -0.007263 -0.000346 0.009857 -10.303536 0.692317 -0.004695 -0.002286 -0.006859 0.008266 -2.233444 -0.725082 0.185729 0.00044 0.011461 0.004629 -30.624787 -44.280765 -24.989296 -1.704354 66.864679 2.43636 -4.503346 -12.012428 -11.881183 -0.001699 -0.026124 0.002548 37.514339 -45.819167 31.11526 2.347923 71.353363 -3.077721 4.042539 -11.462588 12.869355
0.12190000000000001 71.3435 0.9657000000000001 -11.936597 -24.284602 2.386151 8.078178 10.27158 9.624492 -1.077393 -6.729256 2.892564 -3.380816 12.051935 -1.048874 5.840876 -20.494774 -0.948679 0.00457 -0.015952 0.003047 -0.020198 -0.033973 -0.009034 -0.000607 -0.012525 -0.009192 69.86455 32.714356 -0.1264 -17.203207 -9.940957 32.347002 0.044466 1.374611 0.242138 -0.006463 -0.013092 -0.013604 -0.011967 0.018194 -0.013499 -0.017629 -0.000464 0.014768 7.752838 5.517458 0.394809 -0.012737 -0.011176 0.032928 2.932466 0.996577 0.089618 -0.00796 -0.014729 -0.006588 10.287654 0.709606 -0.010271 -0.022062 -0.031262 -0.048715 2.237421 -0.768968 -0.214441 0.012859 0.008195 0.022291 -72.814288 29.267908 -5.233601 17.600232 -10.008504 -32.45195 0.283024 5.188064 -0.813694 0.0209 0.014919 0.009689 -0.002924 0.003169 -0.030218 0.00787 0.019783 -0.036866 -7.751385 5.450054 -0.434629 0.000887 -0.028909 0.004027 -2.905952 0.995831 -0.107081 -0.01821 -0.01534 0.003033 -10.285334 0.663386 0.006566 -0.022034 -0.032002 0.006718 -2.254374 -0.741472 0.183805 0.017046 0.016035 -0.007062 -0.084451 -3.689687 -4.915665 -0.533487 44.878699 1.874762 -15.202422 -19.187591 -30.366693 0.025669 -0.029538 -0.017077 40.804536 -51.569982 28.424465 1.049457 51.482726 -0.605743 -0.587933 5.094825 -4.101433
0.4229 74.4573 1.4029 -9.950156 -24.199942 5.596673 7.474999 10.27424 10.231561 -0.952783 -6.885239 2.956731 -3.352687 12.076881 -0.766446 6.113178 -20.427934 -0.474 0.000399 -0.004095 -0.001298 -0.015765 0.009969 0.00285 0.006067 0.011566 0.004613 66.329275 35.127041 4.8674 -17.059564 -9.892465 32.690163 0.028326 2.091774 0.320084 0.018479 0.002545 -0.02209 -0.003016 0.000724 -0.000422 -0.038868 0.021078 -0.011759 7.777387 5.511783 0.397873 -0.004566 0.005877 0.022761 2.916903 0.977747 0.104046 -0.007842 -0.034295 -0.026 10.290548 0.699811 0.048824 -0.033389 -0.023915 -0.020547 2.243351 -0.765882 -0.211739 -0.004076 0.001258 0.031228 -69.092955 30.90337 -9.148922 17.346665 -9.544433 -31.716696 0.240653 7.078098 -0.995801 -0.000371 0.027215 0.009336 -0.022321 0.023755 -0.041059 0.016325 0.028602 -0.009923 -7.774093 5.463234 -0.395385 -0.004858 -0.033651 0.023108 -2.896173 0.969173 -0.09944 0.00899 0.00411 0.006011 -10.275751 0.692317 0.00768 0.000254 -0.01096 0.025891 -2.208579 -0.722045 0.205442 0.014773 0.007287 -0.02967 -1.735045 -7.131695 -7.696652 -0.787802 47.320727 1.987621 -15.917469 -18.407156 -30.150592 0.012156 -0.04891 0.010456 46.48977 -50.763188 34.594712 0.911765 53.896127 -0.871624 -0.082995 4.810373 -3.143869
